<svg width="528" height="528" xmlns="http://www.w3.org/2000/svg" xmlns:xlink="http://www.w3.org/1999/xlink" overflow="hidden"><defs><clipPath id="clip0"><rect x="376" y="96" width="528" height="528"/></clipPath></defs><g clip-path="url(#clip0)" transform="translate(-376 -96)"><path d="M646 356C646 352.134 649.134 349 653 349L696 349C699.866 349 703 352.134 703 356L703 384C703 387.866 699.866 391 696 391L653 391C649.134 391 646 387.866 646 384Z" fill="#721C2B" fill-rule="evenodd"/><rect x="646" y="382" width="19" height="122" fill="#721C2B"/><path d="M569 507.5C569 487.342 590.49 471 617 471 643.51 471 665 487.342 665 507.5 665 527.658 643.51 544 617 544 590.49 544 569 527.658 569 507.5Z" fill="#721C2B" fill-rule="evenodd"/><path d="M640 264C683.492 264 723.382 279.382 754.497 304.989L758.962 309.037 714.294 350.118 706.908 344.614C687.809 331.756 664.784 324.247 640 324.247 573.909 324.247 520.331 377.639 520.331 443.5 520.331 509.361 573.909 562.753 640 562.753 706.091 562.753 759.669 509.361 759.669 443.5 759.669 427.035 756.32 411.349 750.265 397.082L749.452 395.4 795.369 353.169 798.275 357.94C812.13 383.374 820 412.52 820 443.5 820 542.635 739.411 623 640 623 540.589 623 460 542.635 460 443.5 460 344.365 540.589 264 640 264Z" fill="#721C2B" fill-rule="evenodd"/><path d="M665 124.832 665 242.168C665 257.539 652.016 270 636 270 619.984 270 607 257.539 607 242.168L607 124.832C607 109.461 619.984 96.9999 636 96.9999 652.016 96.9999 665 109.461 665 124.832Z" fill="#721C2B" fill-rule="evenodd"/><rect x="607" y="201" width="58" height="96" fill="#721C2B"/><path d="M706 119.309 706 141.691C706 144.623 703.538 147 700.5 147 697.462 147 695 144.623 695 141.691L695 119.309C695 116.377 697.462 114 700.5 114 703.538 114 706 116.377 706 119.309Z" fill="#721C2B" fill-rule="evenodd"/><rect x="695" y="138" width="11" height="165" fill="#721C2B"/><path d="M579 119.309 579 141.691C579 144.623 576.538 147 573.5 147 570.462 147 568 144.623 568 141.691L568 119.309C568 116.377 570.462 114 573.5 114 576.538 114 579 116.377 579 119.309Z" fill="#721C2B" fill-rule="evenodd"/><rect x="568" y="138" width="11" height="165" fill="#721C2B"/></g></svg>